<svg width="347" height="351" viewBox="0 0 347 351" fill="none" xmlns="http://www.w3.org/2000/svg">
<mask id="mask0_3_8" style="mask-type:luminance" maskUnits="userSpaceOnUse" x="0" y="0" width="347" height="351">
<path d="M347 0H0V351H347V0Z" fill="white"/>
</mask>
<g mask="url(#mask0_3_8)">
<path d="M296 299.333C328.72 266.453 347.063 221.917 347 175.507C346.965 172.643 345.805 169.907 343.769 167.894C341.732 165.88 338.987 164.752 336.125 164.752C333.262 164.752 330.517 165.88 328.481 167.894C326.444 169.907 325.284 172.643 325.249 175.507C325.295 216.178 309.212 255.207 280.534 284.017C266.612 298.325 249.969 309.697 231.585 317.462C213.202 325.226 193.451 329.227 173.498 329.227C153.546 329.227 133.795 325.226 115.412 317.462C97.0283 309.697 80.3847 298.325 66.4628 284.017C37.8231 255.178 21.7479 216.166 21.7479 175.501C21.7479 134.835 37.8231 95.8225 66.4628 66.9835C80.3036 52.7856 96.8223 41.4793 115.061 33.7202C133.3 25.9612 152.896 21.9036 172.713 21.7829C176.944 21.9156 180.956 23.6979 183.894 26.7497C186.831 29.8013 188.461 33.8811 188.436 38.1189C188.412 42.3566 186.734 46.4171 183.762 49.4345C180.789 52.4518 176.757 54.1872 172.524 54.2706C172.132 54.2714 171.74 54.2931 171.351 54.3357C141.201 55.3077 112.594 67.9097 91.5112 89.5067C69.246 111.944 56.7499 142.286 56.7499 173.912C56.7499 205.539 69.246 235.88 91.5112 258.317C102.389 269.472 115.384 278.335 129.734 284.387C144.084 290.438 159.499 293.555 175.07 293.555C190.64 293.555 206.055 290.438 220.405 284.387C234.754 278.335 247.75 269.472 258.628 258.317C280.928 235.904 293.429 205.547 293.384 173.912C293.43 168.93 292.489 163.986 290.617 159.369C288.742 154.753 285.974 150.553 282.47 147.014C278.966 143.474 274.797 140.664 270.202 138.747C265.608 136.829 260.68 135.842 255.701 135.842C250.723 135.842 245.795 136.829 241.201 138.747C236.606 140.664 232.437 143.474 228.933 147.014C225.428 150.553 222.661 154.753 220.786 159.369C218.914 163.986 217.972 168.93 218.018 173.912C218.018 174.23 218.039 174.529 218.064 174.834C218.039 175.139 218.018 175.444 218.018 175.755C218.09 184.442 215.581 192.954 210.81 200.213C206.041 207.471 199.225 213.145 191.227 216.52C183.23 219.893 174.411 220.813 165.892 219.162C157.371 217.51 149.533 213.363 143.371 207.245C137.209 201.127 133.002 193.315 131.283 184.8C129.563 176.284 130.41 167.449 133.714 159.417C137.019 151.383 142.633 144.513 149.844 139.679C157.054 134.845 165.538 132.264 174.216 132.264C175.655 132.281 177.084 132.013 178.418 131.473C179.753 130.934 180.967 130.135 181.991 129.122C183.014 128.11 183.829 126.904 184.382 125.574C184.938 124.244 185.224 122.818 185.224 121.377C185.224 119.936 184.938 118.51 184.382 117.18C183.829 115.851 183.014 114.645 181.991 113.632C180.967 112.62 179.753 111.82 178.418 111.281C177.084 110.742 175.655 110.473 174.216 110.49C161.337 110.562 148.767 114.451 138.093 121.666C127.419 128.881 119.119 139.099 114.239 151.031C109.36 162.963 108.121 176.074 110.677 188.711C113.234 201.348 119.472 212.942 128.604 222.034C137.737 231.125 149.354 237.305 161.992 239.795C174.628 242.283 187.72 240.969 199.612 236.018C211.504 231.068 221.665 222.703 228.814 211.978C235.962 201.252 239.775 188.647 239.775 175.755C239.775 175.437 239.755 175.139 239.729 174.834C239.755 174.529 239.775 174.223 239.775 173.912C239.732 171.791 240.113 169.683 240.896 167.71C241.677 165.738 242.845 163.941 244.327 162.427C245.811 160.912 247.582 159.707 249.536 158.886C251.489 158.065 253.589 157.641 255.708 157.641C257.827 157.641 259.926 158.065 261.88 158.886C263.833 159.707 265.605 160.912 267.089 162.427C268.571 163.941 269.739 165.738 270.52 167.71C271.302 169.683 271.683 171.791 271.64 173.912C271.669 199.811 261.428 224.662 243.165 243.007C234.311 252.113 223.724 259.35 212.029 264.293C200.334 269.235 187.768 271.78 175.073 271.78C162.38 271.78 149.814 269.235 138.119 264.293C126.424 259.35 115.836 252.113 106.982 243.007C88.7442 224.646 78.5073 199.805 78.5073 173.912C78.5073 148.019 88.7442 123.178 106.982 104.817C115.843 95.7224 126.431 88.4922 138.123 83.5511C149.815 78.6099 162.375 76.0576 175.066 76.0439C176.042 76.0412 177.014 75.9067 177.955 75.6436C187.214 74.2222 195.62 69.4288 201.565 62.1833C207.511 54.9377 210.574 45.75 210.167 36.3827C209.761 27.0153 205.912 18.1281 199.363 11.4257C192.813 4.72332 184.022 0.677763 174.676 0.065138C174.286 0.0225684 173.892 0.000824703 173.498 0C173.279 0 173.062 0 172.843 0C172.735 0 172.63 0 172.526 0C172.421 0 172.313 0.012701 172.208 0.0158784C149.599 0.193872 127.249 4.85019 106.446 13.7164C85.6426 22.5825 66.7988 35.4832 51.0001 51.6746C18.3338 84.5893 0 129.103 0 175.501C0 221.898 18.3338 266.41 51.0001 299.325C66.9448 315.681 85.9969 328.68 107.035 337.553C128.073 346.428 150.672 351 173.502 351C196.331 351 218.929 346.428 239.969 337.553C261.007 328.68 280.058 315.681 296.003 299.325L296 299.333Z" fill="url(#paint0_linear_3_8)"/>
</g>
<defs>
<linearGradient id="paint0_linear_3_8" x1="50.315" y1="298.701" x2="271.051" y2="82.9088" gradientUnits="userSpaceOnUse">
<stop stop-color="#41287B"/>
<stop offset="0.123" stop-color="#462779"/>
<stop offset="0.284" stop-color="#572775"/>
<stop offset="0.465" stop-color="#72266E"/>
<stop offset="0.663" stop-color="#982565"/>
<stop offset="0.87" stop-color="#C82459"/>
<stop offset="0.99" stop-color="#E72452"/>
</linearGradient>
</defs>
</svg>
